<?xml version="1.0" standalone="no"?><!DOCTYPE svg PUBLIC "-//W3C//DTD SVG 1.1//EN" "http://www.w3.org/Graphics/SVG/1.1/DTD/svg11.dtd"><svg t="1547717247869" class="icon" style="" viewBox="0 0 1024 1024" version="1.1" xmlns="http://www.w3.org/2000/svg" p-id="5689" xmlns:xlink="http://www.w3.org/1999/xlink" width="200" height="200"><defs><style type="text/css"></style></defs><path d="M365.714286 146.285714l292.571429 0 0-73.142857-292.571429 0 0 73.142857zm658.285714 365.714286l0 274.285714q0 37.714286-26.857143 64.571429t-64.571429 26.857143l-841.142857 0q-37.714286 0-64.571429-26.857143t-26.857143-64.571429l0-274.285714 384 0 0 91.428571q0 14.857143 10.857143 25.714286t25.714286 10.857143l182.857143 0q14.857143 0 25.714286-10.857143t10.857143-25.714286l0-91.428571 384 0zm-438.857143 0l0 73.142857-146.285714 0 0-73.142857 146.285714 0zm438.857143-274.285714l0 219.428571-1024 0 0-219.428571q0-37.714286 26.857143-64.571429t64.571429-26.857143l201.142857 0 0-91.428571q0-22.857143 16-38.857143t38.857143-16l329.142857 0q22.857143 0 38.857143 16t16 38.857143l0 91.428571 201.142857 0q37.714286 0 64.571429 26.857143t26.857143 64.571429z" p-id="5690"></path></svg>