<?xml version="1.0" standalone="no"?><!DOCTYPE svg PUBLIC "-//W3C//DTD SVG 1.1//EN" "http://www.w3.org/Graphics/SVG/1.1/DTD/svg11.dtd"><svg t="1547717167281" class="icon" style="" viewBox="0 0 1169 1024" version="1.1" xmlns="http://www.w3.org/2000/svg" p-id="4754" xmlns:xlink="http://www.w3.org/1999/xlink" width="228.3203125" height="200"><defs><style type="text/css"></style></defs><path d="M629.79821661 512.78091616h181.95349191v60.07048298h-240.28193105v-60.07048298h-1.74204383V328.78502768h60.07048297v183.99588848z m1.8621851 421.09408384a418.99161703 418.99161703 0 0 1-324.20039558-153.23980103l83.85839429-83.8583943a298.55029916 298.55029916 0 0 0 237.33847705 118.03849831 300.65276596 300.65276596 0 1 0-294.46550601-361.20381233H450.54789617L333.77087744 570.44857959l0.24028253 0.96112766-67.39908206 66.19767186L90.125 453.61149065h125.54730889C244.32592871 248.53086313 418.65046961 90.125 631.66040171 90.125a421.875 421.875 0 0 1 421.875 421.875 421.81492978 421.81492978 0 0 1-421.875 421.875z" p-id="4755"></path></svg>