<?xml version="1.0" standalone="no"?><!DOCTYPE svg PUBLIC "-//W3C//DTD SVG 1.1//EN" "http://www.w3.org/Graphics/SVG/1.1/DTD/svg11.dtd"><svg class="icon" width="200px" height="200.00px" viewBox="0 0 1024 1024" version="1.1" xmlns="http://www.w3.org/2000/svg"><path fill="#ffffff" d="M512 17.066667C238.933333 17.066667 17.066667 238.933333 17.066667 512S238.933333 1006.933333 512 1006.933333 1006.933333 785.066667 1006.933333 512 785.066667 17.066667 512 17.066667z m-116.053333 279.893333l102.4-136.533333c6.826667-10.24 20.48-10.24 27.306666 0l102.4 136.533333c3.413333 6.826667 3.413333 13.653333 0 17.066667-3.413333 6.826667-10.24 10.24-13.653333 10.24h-204.8c-6.826667 0-13.653333-3.413333-13.653333-10.24s-3.413333-10.24 0-17.066667zM324.266667 614.4c0 6.826667-3.413333 13.653333-10.24 13.653333-3.413333 0-3.413333 3.413333-6.826667 3.413334s-6.826667 0-10.24-3.413334l-136.533333-102.4c-3.413333-3.413333-6.826667-6.826667-6.826667-13.653333s3.413333-10.24 6.826667-13.653333l136.533333-102.4c6.826667-3.413333 13.653333-3.413333 17.066667 0 6.826667 3.413333 10.24 10.24 10.24 13.653333v204.8z m303.786666 112.64l-102.4 136.533333c-3.413333 3.413333-6.826667 6.826667-13.653333 6.826667s-10.24-3.413333-13.653333-6.826667l-102.4-136.533333c-3.413333-6.826667-3.413333-13.653333 0-17.066667 3.413333-6.826667 10.24-10.24 13.653333-10.24h204.8c6.826667 0 13.653333 3.413333 13.653333 10.24s3.413333 10.24 0 17.066667zM512 631.466667c-64.853333 0-119.466667-54.613333-119.466667-119.466667s54.613333-119.466667 119.466667-119.466667 119.466667 54.613333 119.466667 119.466667-54.613333 119.466667-119.466667 119.466667z m215.04-3.413334c-3.413333 3.413333-6.826667 3.413333-10.24 3.413334-3.413333 0-6.826667 0-6.826667-3.413334-6.826667-3.413333-10.24-10.24-10.24-13.653333v-204.8c0-6.826667 3.413333-13.653333 10.24-13.653333 6.826667-3.413333 13.653333-3.413333 17.066667 0l136.533333 102.4c3.413333 3.413333 6.826667 6.826667 6.826667 13.653333s-3.413333 10.24-6.826667 13.653333l-136.533333 102.4z"  /></svg>